<svg width="96" height="96" viewBox="0 0 96 96" fill="none" xmlns="http://www.w3.org/2000/svg">
<path d="M71.019 50.9543C71.2157 59.3722 66.9481 71.9565 56.0574 77.089C53.3202 78.3789 51.7991 77.1272 48.4979 77.2864C45.5483 77.4286 44.6371 78.4688 41.8279 77.463C30.1622 73.2862 24.9823 61.0518 24.7717 52.0348C24.4962 40.2463 34.1392 34.0188 47.6668 41.7115C59.9414 33.8609 70.7436 39.1658 71.019 50.9543Z" fill="#FF542F"/>
<path fill-rule="evenodd" clip-rule="evenodd" d="M47.6096 39.4005C40.9177 35.8819 34.7802 35.4229 30.1364 37.7851C25.2009 40.2956 22.6219 45.6464 22.7723 52.0815C22.9949 61.6094 28.4483 74.7969 41.1538 79.3459C42.9094 79.9745 44.1839 79.9795 45.4273 79.7799C45.8543 79.7114 46.203 79.6391 46.5309 79.5712C47.1594 79.441 47.7118 79.3266 48.5943 79.284C49.6432 79.2335 50.3984 79.3417 51.257 79.4647C51.5706 79.5096 51.898 79.5565 52.2586 79.5983C53.6209 79.7565 55.0937 79.7541 56.91 78.8981C68.7636 73.312 73.2264 59.8016 73.0186 50.9076C72.8661 44.3825 69.7492 39.3102 64.6264 37.1282C59.8334 35.0866 53.7682 35.7808 47.6096 39.4005ZM56.0574 77.0889C66.9482 71.9565 71.2158 59.3722 71.0191 50.9543C70.7437 39.1658 59.9414 33.8609 47.6669 41.7115C34.1393 34.0188 24.4963 40.2463 24.7717 52.0348C24.9824 61.0518 30.1623 73.2862 41.828 77.463C43.6519 78.116 44.6757 77.9066 45.9768 77.6404C46.6797 77.4966 47.4635 77.3362 48.498 77.2864C49.7533 77.2258 50.7512 77.3693 51.6565 77.4995C53.1319 77.7116 54.3611 77.8884 56.0574 77.0889Z" fill="#734125"/>
<path fill-rule="evenodd" clip-rule="evenodd" d="M51.6092 71.7512C62.5 66.6188 65.878 54.0345 65.6813 45.6166C65.6237 43.1514 65.1058 40.9698 64.2103 39.1327C68.2703 41.036 70.8853 45.231 71.019 50.9543C71.2157 59.3722 66.9481 71.9565 56.0573 77.0889C54.361 77.8883 53.1318 77.7116 51.6564 77.4995C50.7511 77.3693 49.7532 77.2258 48.4979 77.2864C47.4634 77.3362 46.6796 77.4966 45.9767 77.6404C44.6756 77.9066 43.6518 78.116 41.8278 77.463C37.561 75.9353 34.1619 73.3297 31.5562 70.1978C32.7928 70.952 34.1388 71.6019 35.6005 72.1253C37.4818 72.7988 38.9108 72.5548 40.5355 72.2774C41.3369 72.1406 42.1859 71.9956 43.1602 71.9487C44.3835 71.8897 45.4845 72.0244 46.5252 72.1518C48.2929 72.3681 49.8864 72.5632 51.6092 71.7512Z" fill="#ED4A27"/>
<path d="M64.3815 48.7413C64.2458 49.7146 63.3468 50.3934 62.3735 50.2577C61.4003 50.1219 60.7214 49.2229 60.8572 48.2497C60.993 47.2765 61.892 46.5976 62.8652 46.7333C63.8384 46.8691 64.5173 47.7681 64.3815 48.7413Z" fill="#C53622"/>
<path d="M69.197 53.8925C69.0612 54.8657 68.1622 55.5446 67.189 55.4088C66.2158 55.273 65.5369 54.374 65.6726 53.4008C65.8084 52.4276 66.7074 51.7487 67.6806 51.8845C68.6538 52.0202 69.3327 52.9192 69.197 53.8925Z" fill="#C53622"/>
<path d="M69.0941 47.1532C68.9923 47.8831 68.3181 48.3922 67.5881 48.2904C66.8582 48.1886 66.3491 47.5143 66.4509 46.7844C66.5527 46.0545 67.227 45.5453 67.9569 45.6472C68.6868 45.749 69.196 46.4232 69.0941 47.1532Z" fill="#C53622"/>
<path d="M67.4472 60.0808C67.3114 61.054 66.4124 61.7329 65.4392 61.5972C64.466 61.4614 63.7871 60.5624 63.9229 59.5892C64.0586 58.6159 64.9577 57.9371 65.9309 58.0728C66.9041 58.2086 67.583 59.1076 67.4472 60.0808Z" fill="#C53622"/>
<path d="M62.6315 54.9297C62.4958 55.9029 61.5968 56.5818 60.6235 56.446C59.6503 56.3102 58.9714 55.4112 59.1072 54.438C59.243 53.4648 60.142 52.7859 61.1152 52.9217C62.0884 53.0574 62.7673 53.9564 62.6315 54.9297Z" fill="#C53622"/>
<path d="M64.5109 66.8261C64.3752 67.7994 63.4762 68.4783 62.5029 68.3425C61.5297 68.2067 60.8508 67.3077 60.9866 66.3345C61.1224 65.3613 62.0214 64.6824 62.9946 64.8182C63.9678 64.9539 64.6467 65.8529 64.5109 66.8261Z" fill="#C53622"/>
<path d="M60.9357 61.4326C60.8 62.4058 59.901 63.0847 58.9277 62.949C57.9545 62.8132 57.2756 61.9142 57.4114 60.941C57.5472 59.9678 58.4462 59.2889 59.4194 59.4246C60.3926 59.5604 61.0715 60.4594 60.9357 61.4326Z" fill="#C53622"/>
<path d="M60.9835 70.7753C60.8817 71.5052 60.2075 72.0143 59.4775 71.9125C58.7476 71.8107 58.2385 71.1364 58.3403 70.4065C58.4421 69.6766 59.1164 69.1674 59.8463 69.2693C60.5762 69.3711 61.0854 70.0453 60.9835 70.7753Z" fill="#C53622"/>
<path d="M57.6479 23.499C57.6479 23.499 59.6245 31.6491 57.5432 36.0864C55.0346 41.4346 47.459 41.7722 47.459 41.7722C47.459 41.7722 45.1653 35.5203 48.1964 30.0842C50.5281 25.9025 57.6479 23.499 57.6479 23.499Z" fill="#7CD623"/>
<path fill-rule="evenodd" clip-rule="evenodd" d="M59.5914 23.0276L57.6478 23.499L57.0081 21.604C57.5395 21.4246 58.1218 21.4766 58.613 21.7473C59.1042 22.018 59.4592 22.4825 59.5914 23.0276ZM55.768 24.2536C56.8808 23.7579 57.6478 23.499 57.6478 23.499C57.6478 23.499 57.8366 24.2775 58.036 25.4844C58.482 28.1823 58.9811 33.0206 57.543 36.0864C55.0345 41.4346 47.4589 41.7722 47.4589 41.7722C47.4589 41.7722 45.1651 35.5203 48.1963 30.0842C49.7627 27.2749 53.49 25.2682 55.768 24.2536ZM47.4589 41.7722C45.5812 42.4611 45.581 42.4604 45.5807 42.4597L45.5789 42.4547L45.5758 42.446L45.5671 42.4217C45.5603 42.4025 45.5514 42.3771 45.5408 42.3459C45.5195 42.2836 45.4911 42.1977 45.4574 42.0901C45.3902 41.875 45.3016 41.572 45.2075 41.1953C45.0198 40.444 44.8066 39.3867 44.6984 38.1396C44.484 35.6684 44.6702 32.3011 46.4495 29.1102C47.9068 26.4965 50.7057 24.6246 52.8428 23.4654C53.9551 22.8621 54.9843 22.4014 55.7355 22.0913C56.1123 21.9356 56.4224 21.8166 56.6418 21.7352C56.7517 21.6945 56.839 21.6631 56.901 21.6412C56.932 21.6303 56.9566 21.6217 56.9746 21.6155L56.9965 21.608L57.0062 21.6047L57.0081 21.604C57.0085 21.6039 57.0081 21.604 57.6478 23.499C59.5914 23.0276 59.5913 23.0272 59.5914 23.0276L59.5924 23.0319L59.5942 23.0391L59.5997 23.0625L59.6186 23.1436C59.6345 23.2125 59.6566 23.3109 59.6836 23.4358C59.7375 23.6854 59.8107 24.0417 59.8913 24.4811C60.052 25.3576 60.244 26.5773 60.3678 27.9489C60.6053 30.5796 60.6382 34.1973 59.3537 36.9358C57.7651 40.3227 54.6376 41.9984 52.2059 42.8278C50.9636 43.2515 49.8187 43.4846 48.9857 43.6127C48.5669 43.6771 48.2212 43.7158 47.9741 43.7387C47.8504 43.7502 47.7509 43.7578 47.679 43.7626C47.643 43.765 47.6138 43.7668 47.5918 43.768L47.5643 43.7695L47.5547 43.7699L47.551 43.7701L47.5493 43.7702C47.5486 43.7702 47.5479 43.7703 47.4589 41.7722ZM45.5812 42.4611L47.4589 41.7722L47.5479 43.7703C46.6771 43.8091 45.8815 43.2794 45.5812 42.4611Z" fill="#156319"/>
<path d="M56.2034 36.1167C58.0713 32.7666 56.9721 25.9531 56.9721 25.9531C51.4197 31.7215 50.0221 38.1307 49.7049 40.445C49.7049 40.445 54.3354 39.4668 56.2034 36.1167Z" fill="#6FC21C"/>
<path d="M37.0227 32.9156C38.9454 33.375 45.3199 38.7989 47.107 42.1763C47.2561 42.458 48.0251 42.017 47.8985 41.7703C46.8795 38.5534 43.629 30.9603 41.0151 28.672C37.572 28.5995 36.9144 32.192 37.0227 32.9156Z" fill="#943D31"/>
<path fill-rule="evenodd" clip-rule="evenodd" d="M36.558 34.8608C35.7644 34.6712 35.1656 34.0185 35.0448 33.2115C34.9642 32.6727 35.0434 32.0312 35.1673 31.4904C35.3048 30.8902 35.5521 30.1743 35.9673 29.4746C36.8367 28.0094 38.4711 26.618 41.0573 26.6724C41.5273 26.6823 41.9789 26.8575 42.3326 27.1672C43.2017 27.928 44.0165 29.0223 44.7386 30.1596C45.4784 31.3248 46.1973 32.6582 46.8511 33.9932C48.1313 36.607 49.2219 39.3499 49.7758 41.0737C50.1866 42.1269 49.5988 42.9893 49.4183 43.2177C49.1487 43.5588 48.8221 43.7871 48.5603 43.9292C48.3036 44.0686 47.9095 44.2335 47.4337 44.2626C46.9774 44.2906 45.9061 44.1829 45.3393 43.1117C44.6213 41.7547 42.8092 39.7506 40.7843 37.944C39.8015 37.0672 38.8309 36.2924 38.0129 35.721C37.6033 35.4348 37.2522 35.2138 36.9714 35.0595C36.7177 34.92 36.588 34.8723 36.5613 34.8625C36.5557 34.8604 36.5546 34.86 36.558 34.8608ZM47.8987 41.7703C47.8975 41.7666 47.8963 41.7629 47.8952 41.7593C47.7597 41.3324 47.5852 40.8291 47.3784 40.2718C47.1157 39.5641 46.8008 38.7693 46.4474 37.9334C44.9778 34.4577 42.8412 30.2705 41.0152 28.672C37.5721 28.5995 36.9146 32.192 37.0228 32.9156C38.409 33.2468 42.1089 36.1583 44.7357 39.023C45.2915 39.6292 45.7993 40.2334 46.227 40.8105C46.5452 41.24 46.819 41.6545 47.0352 42.0438C47.06 42.0883 47.0839 42.1324 47.1071 42.1763C47.2562 42.458 48.0252 42.017 47.8987 41.7703ZM45.9746 42.3194C46.008 42.4369 46.0552 42.5584 46.1191 42.683C46.0682 42.5838 46.0257 42.4805 45.992 42.3742C45.9863 42.3561 45.9805 42.3378 45.9746 42.3194Z" fill="#633526"/>
<path d="M41.6806 28.7387C42.3088 29.4088 41.8712 30.8397 40.7031 31.9347C39.5351 33.0296 38.0789 33.374 37.4507 32.7039C36.8225 32.0337 37.2601 30.6028 38.4282 29.5079C39.5962 28.4129 41.0524 28.0686 41.6806 28.7387Z" fill="#C26649"/>
<path d="M38.179 41.7764C40.8239 43.0782 41.3852 47.3497 39.4326 51.3171C37.4799 55.2845 33.7529 57.4455 31.1079 56.1437C28.463 54.842 27.9018 50.5705 29.8544 46.6031C31.807 42.6357 35.534 40.4747 38.179 41.7764Z" fill="#FF896F"/>
<path fill-rule="evenodd" clip-rule="evenodd" d="M35.1171 44.9609C35.9653 45.6684 36.0794 46.9296 35.3719 47.7778C34.9111 48.3302 34.6096 48.9131 34.4417 49.5372C34.1548 50.6038 33.0575 51.2359 31.9908 50.9489C30.9242 50.662 30.2921 49.5647 30.5791 48.498C30.9045 47.2884 31.4867 46.1908 32.3002 45.2156C33.0077 44.3674 34.2689 44.2533 35.1171 44.9609Z" fill="white"/>
</svg>
