<svg width="96" height="96" viewBox="0 0 96 96" fill="none" xmlns="http://www.w3.org/2000/svg">
<path d="M51.9228 45.7885C40.7659 57.6614 30.1145 78.654 19.0576 68.2639C8.00072 57.8737 28.7117 46.3341 39.8686 34.4612C51.0255 22.5883 59.7802 18.7215 63.1088 21.8494C66.4375 24.9774 63.0797 33.9157 51.9228 45.7885Z" fill="#4CAA1F"/>
<path fill-rule="evenodd" clip-rule="evenodd" d="M27.7806 72.7436C24.3074 73.6253 20.8839 72.7244 17.688 69.7213C14.4913 66.7174 13.3965 63.368 14.1168 59.8656C14.7912 56.5863 17.005 53.4648 19.658 50.5678C22.3428 47.6359 25.7221 44.6803 29.0399 41.7839L29.1581 41.6808C32.4752 38.7851 35.7348 35.9397 38.4111 33.0916C44.0717 27.0679 49.2289 22.9562 53.5086 20.752C55.6445 19.6519 57.6684 18.9712 59.4948 18.8362C61.349 18.6991 63.1299 19.1248 64.4784 20.3919C65.8281 21.6602 66.3607 23.4108 66.334 25.2686C66.3078 27.0972 65.7475 29.1546 64.7769 31.3487C62.8321 35.7451 59.0389 41.1363 53.3803 47.1581C50.8282 49.8739 48.293 53.0913 45.7064 56.3739C45.5399 56.5852 45.3732 56.7968 45.2062 57.0086C42.4779 60.4688 39.6835 63.9756 36.8661 66.7898C34.0805 69.5724 31.047 71.9144 27.7806 72.7436ZM44.1515 55.1157C46.722 51.8533 49.3085 48.5705 51.9228 45.7885C63.0797 33.9156 66.4375 24.9774 63.1088 21.8494C59.7802 18.7215 51.0256 22.5883 39.8686 34.4612C37.1238 37.3821 33.8008 40.2828 30.5148 43.1513C20.444 51.9423 10.7209 60.4298 19.0576 68.2639C27.5237 76.2194 35.752 65.7762 44.1515 55.1157Z" fill="#2B710A"/>
<path fill-rule="evenodd" clip-rule="evenodd" d="M42.4824 46.892C44.7949 43.9042 47.1217 40.8977 49.4979 38.369C56.2842 31.1473 59.7867 25.0175 60.3638 20.8148C61.4943 20.8526 62.4183 21.2005 63.1089 21.8494C66.4375 24.9773 63.0798 33.9156 51.9228 45.7885C49.3085 48.5705 46.722 51.8533 44.1515 55.1157C35.752 65.7762 27.5237 76.2194 19.0577 68.2638C15.0712 64.5177 15.2142 60.6222 17.5502 56.6155C17.9714 57.1641 18.472 57.7135 19.0577 58.2639C27.5237 66.2194 34.926 56.6552 42.4824 46.892Z" fill="#419C15"/>
<path d="M51.5001 26.5C52.9059 28.7892 44.6965 39.5 36 46.4999C30.6293 50.8228 21 58.5 20.6394 55.2014C19.5099 53.8914 30.6633 44.3097 35.5001 40.5001C46 32.2298 49.4059 24.7892 51.5001 26.5Z" fill="#5FCF2A"/>
<path fill-rule="evenodd" clip-rule="evenodd" d="M31.207 46.7928C31.5975 47.1834 31.5975 47.8165 31.207 48.207C29.6952 49.7188 28.4354 50.6964 26.9004 51.8875C26.3517 52.3132 25.7679 52.7663 25.1247 53.2808C24.6935 53.6258 24.0642 53.5559 23.7192 53.1246C23.3741 52.6934 23.4441 52.0641 23.8753 51.7191C24.5726 51.1613 25.1847 50.6862 25.7458 50.2508C27.2427 49.0891 28.376 48.2096 29.7928 46.7928C30.1833 46.4023 30.8165 46.4023 31.207 46.7928Z" fill="#A0EA29"/>
<path d="M65.1039 57.4403C52.1322 67.2981 40.2965 86.7744 29.1965 72.1682C18.0965 57.5619 40.031 51.3745 53.0027 41.5167C65.9744 31.6588 72.8295 32.0725 76.1712 36.4697C79.5128 40.8669 78.0756 47.5824 65.1039 57.4403Z" fill="#58C923"/>
<path fill-rule="evenodd" clip-rule="evenodd" d="M37.6142 79.4145C33.9509 79.3201 30.6189 77.3452 27.6042 73.3783C24.5895 69.4113 23.5791 65.6721 24.4692 62.1173C25.3271 58.6908 27.8489 55.8956 30.8183 53.5041C33.8097 51.0948 37.5517 48.8677 41.2308 46.6897C41.3203 46.6367 41.4097 46.5838 41.4992 46.5308C45.1424 44.3744 48.7352 42.2478 51.7926 39.9243C58.374 34.9228 63.6508 32.3256 67.8932 31.6709C70.0464 31.3387 71.9823 31.4996 73.6801 32.149C75.3846 32.801 76.7307 33.9005 77.7636 35.2596C78.7964 36.6187 79.4953 38.2101 79.667 40.027C79.838 41.8366 79.4745 43.745 78.5778 45.7305C76.8109 49.6426 72.8954 54.0311 66.314 59.0326C63.2566 61.3561 60.2455 64.2481 57.1922 67.1808L56.9672 67.3968C53.8834 70.3583 50.7355 73.3671 47.6131 75.6041C44.5137 77.8245 41.1453 79.5055 37.6142 79.4145ZM55.8457 65.7009C58.8686 62.7974 61.9527 59.835 65.1039 57.4403C78.0756 47.5824 79.5129 40.8669 76.1712 36.4697C72.8296 32.0725 65.9744 31.6588 53.0027 41.5166C49.8516 43.9114 46.1714 46.0895 42.5645 48.2244C31.3235 54.8775 20.793 61.1102 29.1965 72.1681C37.6 83.2261 46.4252 74.7494 55.8457 65.7009Z" fill="#2B710A"/>
<path fill-rule="evenodd" clip-rule="evenodd" d="M53.8458 61.7009C56.8686 58.7974 59.9528 55.8351 63.104 53.4403C73.1373 45.8155 76.2699 40.0706 75.6279 35.8243C75.8186 36.0284 75.9995 36.2438 76.1713 36.4698C79.5129 40.867 78.0757 47.5825 65.104 57.4403C61.9528 59.8351 58.8686 62.7974 55.8458 65.7009C46.4252 74.7495 37.6001 83.2262 29.1966 72.1682C27.8787 70.434 27.0265 68.8186 26.5696 67.3015C26.7656 67.5871 26.9745 67.876 27.1966 68.1682C35.6001 79.2262 44.4252 70.7495 53.8458 61.7009Z" fill="#4CAA1F"/>
<path d="M62.0943 42.2108C63.5001 44.5 45.0001 57.5 45.0001 57.5C45.0001 57.5 29.769 66.5115 28.6395 65.2015C27.5099 63.8914 34.4575 56.9511 40 54.2702C54.5943 47.2108 60.0001 40.5 62.0943 42.2108Z" fill="#79E645"/>
<path d="M45.7778 48.9583C45.7778 49.6717 45.1995 50.25 44.4862 50.25C43.7728 50.25 43.1945 49.6717 43.1945 48.9583C43.1945 48.2449 43.7728 47.6666 44.4862 47.6666C45.1995 47.6666 45.7778 48.2449 45.7778 48.9583Z" fill="#47A21D"/>
<path d="M54.389 45.5139C54.389 46.2272 53.8106 46.8055 53.0973 46.8055C52.3839 46.8055 51.8056 46.2272 51.8056 45.5139C51.8056 44.8005 52.3839 44.2222 53.0973 44.2222C53.8106 44.2222 54.389 44.8005 54.389 45.5139Z" fill="#47A21D"/>
<path d="M59.5556 40.3472C59.5556 41.0606 58.9773 41.6389 58.2639 41.6389C57.5506 41.6389 56.9723 41.0606 56.9723 40.3472C56.9723 39.6338 57.5506 39.0555 58.2639 39.0555C58.9773 39.0555 59.5556 39.6338 59.5556 40.3472Z" fill="#47A21D"/>
<path d="M38.0278 55.8472C38.0278 56.5606 37.4495 57.1389 36.7362 57.1389C36.0228 57.1389 35.4445 56.5606 35.4445 55.8472C35.4445 55.1338 36.0228 54.5555 36.7362 54.5555C37.4495 54.5555 38.0278 55.1338 38.0278 55.8472Z" fill="#47A21D"/>
<path d="M50.0834 45.9444C50.0834 46.42 49.6979 46.8055 49.2223 46.8055C48.7467 46.8055 48.3612 46.42 48.3612 45.9444C48.3612 45.4688 48.7467 45.0833 49.2223 45.0833C49.6979 45.0833 50.0834 45.4688 50.0834 45.9444Z" fill="#47A21D"/>
<path d="M48.3612 50.25C48.3612 50.7256 47.9756 51.1111 47.5001 51.1111C47.0245 51.1111 46.639 50.7256 46.639 50.25C46.639 49.7744 47.0245 49.3889 47.5001 49.3889C47.9756 49.3889 48.3612 49.7744 48.3612 50.25Z" fill="#47A21D"/>
<path d="M56.1112 41.6389C56.1112 42.1144 55.7256 42.5 55.2501 42.5C54.7745 42.5 54.389 42.1144 54.389 41.6389C54.389 41.1633 54.7745 40.7778 55.2501 40.7778C55.7256 40.7778 56.1112 41.1633 56.1112 41.6389Z" fill="#47A21D"/>
<path d="M63.0001 38.1944C63.0001 38.67 62.6145 39.0555 62.139 39.0555C61.6634 39.0555 61.2778 38.67 61.2778 38.1944C61.2778 37.7188 61.6634 37.3333 62.139 37.3333C62.6145 37.3333 63.0001 37.7188 63.0001 38.1944Z" fill="#47A21D"/>
<path d="M33.7223 57.1389C33.7223 57.6144 33.3368 58 32.8612 58C32.3856 58 32.0001 57.6144 32.0001 57.1389C32.0001 56.6633 32.3856 56.2778 32.8612 56.2778C33.3368 56.2778 33.7223 56.6633 33.7223 57.1389Z" fill="#47A21D"/>
<path d="M39.7501 52.8333C39.7501 53.3089 39.3645 53.6944 38.8889 53.6944C38.4134 53.6944 38.0278 53.3089 38.0278 52.8333C38.0278 52.3577 38.4134 51.9722 38.8889 51.9722C39.3645 51.9722 39.7501 52.3577 39.7501 52.8333Z" fill="#47A21D"/>
<path d="M44.0556 51.9722C44.0556 52.9234 43.2846 53.6944 42.3334 53.6944C41.3822 53.6944 40.6112 52.9234 40.6112 51.9722C40.6112 51.021 41.3822 50.25 42.3334 50.25C43.2846 50.25 44.0556 51.021 44.0556 51.9722Z" fill="#47A21D"/>
<path d="M51.0001 63.4999C51.0001 64.3284 50.3285 64.9999 49.5001 64.9999C48.6717 64.9999 48.0001 64.3284 48.0001 63.4999C48.0001 62.6715 48.6717 61.9999 49.5001 61.9999C50.3285 61.9999 51.0001 62.6715 51.0001 63.4999Z" fill="#79E745"/>
<path d="M45.0001 73.4999C45.0001 74.3284 44.3285 74.9999 43.5001 74.9999C42.6717 74.9999 42.0001 74.3284 42.0001 73.4999C42.0001 72.6715 42.6717 71.9999 43.5001 71.9999C44.3285 71.9999 45.0001 72.6715 45.0001 73.4999Z" fill="#79E745"/>
<path d="M61.0001 58.4999C61.0001 59.3284 60.3285 59.9999 59.5001 59.9999C58.6717 59.9999 58.0001 59.3284 58.0001 58.4999C58.0001 57.6715 58.6717 56.9999 59.5001 56.9999C60.3285 56.9999 61.0001 57.6715 61.0001 58.4999Z" fill="#79E745"/>
<path d="M72.0001 49.4999C72.0001 50.3284 71.3285 50.9999 70.5001 50.9999C69.6717 50.9999 69.0001 50.3284 69.0001 49.4999C69.0001 48.6715 69.6717 47.9999 70.5001 47.9999C71.3285 47.9999 72.0001 48.6715 72.0001 49.4999Z" fill="#79E745"/>
<path d="M54.0001 64.9999C54.0001 65.5522 53.5524 65.9999 53.0001 65.9999C52.4478 65.9999 52.0001 65.5522 52.0001 64.9999C52.0001 64.4477 52.4478 63.9999 53.0001 63.9999C53.5524 63.9999 54.0001 64.4477 54.0001 64.9999Z" fill="#79E745"/>
<path d="M64.0001 55.9999C64.0001 56.5522 63.5524 56.9999 63.0001 56.9999C62.4478 56.9999 62.0001 56.5522 62.0001 55.9999C62.0001 55.4477 62.4478 54.9999 63.0001 54.9999C63.5524 54.9999 64.0001 55.4477 64.0001 55.9999Z" fill="#79E745"/>
<path d="M58.0001 60.9999C58.0001 62.1045 57.1047 62.9999 56.0001 62.9999C54.8956 62.9999 54.0001 62.1045 54.0001 60.9999C54.0001 59.8954 54.8956 58.9999 56.0001 58.9999C57.1047 58.9999 58.0001 59.8954 58.0001 60.9999Z" fill="#79E745"/>
<path d="M67.0001 52.9999C67.0001 54.1045 66.1047 54.9999 65.0001 54.9999C63.8956 54.9999 63.0001 54.1045 63.0001 52.9999C63.0001 51.8954 63.8956 50.9999 65.0001 50.9999C66.1047 50.9999 67.0001 51.8954 67.0001 52.9999Z" fill="#79E745"/>
<path d="M49.0001 68.9999C49.0001 70.1045 48.1047 70.9999 47.0001 70.9999C45.8956 70.9999 45.0001 70.1045 45.0001 68.9999C45.0001 67.8954 45.8956 66.9999 47.0001 66.9999C48.1047 66.9999 49.0001 67.8954 49.0001 68.9999Z" fill="#79E745"/>
<path fill-rule="evenodd" clip-rule="evenodd" d="M46.3602 53.0002C46.6899 53.4433 46.5979 54.0698 46.1548 54.3994C44.9084 55.3267 42.693 56.593 40.5369 57.8255C40.3739 57.9187 40.2111 58.0118 40.0492 58.1044C37.6715 59.465 35.4878 60.7358 34.5054 61.5606C34.0825 61.9157 33.4517 61.8607 33.0966 61.4378C32.7414 61.0148 32.7964 60.384 33.2194 60.0289C34.3746 59.0589 36.7597 57.6824 39.0559 56.3685C39.1982 56.2871 39.3404 56.2058 39.4821 56.1247C41.7008 54.856 43.8169 53.6459 44.961 52.7948C45.4041 52.4651 46.0306 52.5571 46.3602 53.0002Z" fill="white"/>
</svg>
